<?xml version="1.0" standalone="no"?>
<!DOCTYPE svg PUBLIC "-//W3C//DTD SVG 20010904//EN"
 "http://www.w3.org/TR/2001/REC-SVG-20010904/DTD/svg10.dtd">
<svg version="1.0" xmlns="http://www.w3.org/2000/svg"
 width="381.000000pt" height="381.000000pt" viewBox="0 0 381.000000 381.000000"
 preserveAspectRatio="xMidYMid meet">
<metadata>
Created by potrace 1.11, written by Peter Selinger 2001-2013
</metadata>
<g transform="translate(0.000000,381.000000) scale(0.100000,-0.100000)"
fill="#000000" stroke="none">
<path d="M505 3785 c-140 -31 -229 -81 -326 -182 -74 -78 -117 -147 -151 -248
l-23 -70 -3 -1347 c-3 -1508 -6 -1424 69 -1578 82 -165 252 -297 434 -335 105
-22 2675 -22 2780 0 182 38 352 170 434 335 75 154 72 70 69 1578 l-3 1347
-23 70 c-34 102 -91 191 -169 266 -78 74 -147 117 -248 151 l-70 23 -1355 2
c-1107 1 -1366 -1 -1415 -12z m2069 -1205 c21 -4 43 -15 47 -22 5 -7 9 -77 9
-155 l0 -143 158 0 c110 0 162 -4 170 -12 7 -7 12 -40 12 -79 0 -99 0 -99
-186 -99 l-155 0 3 -392 3 -393 24 -42 c41 -72 114 -89 221 -52 80 27 90 20
90 -70 0 -83 -15 -106 -82 -126 -68 -20 -219 -20 -287 1 -71 21 -140 89 -172
169 -23 59 -24 65 -27 483 l-3 422 -89 0 c-80 0 -90 2 -104 22 -18 25 -21 103
-6 142 9 25 12 26 105 26 l95 0 0 149 c0 107 4 151 13 159 24 20 101 26 161
12z m-889 -316 c143 -49 230 -159 261 -332 10 -57 13 -185 14 -494 l0 -417
-22 -15 c-31 -22 -155 -22 -186 0 l-22 15 0 402 c0 440 -4 478 -58 567 -40 64
-98 95 -182 95 -92 0 -145 -29 -252 -135 l-88 -87 0 -427 0 -426 -26 -10 c-33
-13 -135 -13 -168 0 l-26 10 0 620 0 620 26 10 c14 6 47 10 74 10 27 0 60 -4
74 -10 25 -9 26 -12 26 -96 l0 -86 65 60 c69 65 179 126 255 142 60 12 173 4
235 -16z"/>
</g>
</svg>
