<?xml version="1.0" standalone="no"?>
<!DOCTYPE svg PUBLIC "-//W3C//DTD SVG 20010904//EN"
 "http://www.w3.org/TR/2001/REC-SVG-20010904/DTD/svg10.dtd">
<svg version="1.0" xmlns="http://www.w3.org/2000/svg"
 width="512.000000pt" height="512.000000pt" viewBox="0 0 512.000000 512.000000"
 preserveAspectRatio="xMidYMid meet">
<metadata>
Created by potrace 1.11, written by Peter Selinger 2001-2013
</metadata>
<g transform="translate(0.000000,512.000000) scale(0.100000,-0.100000)"
fill="#000000" stroke="none">
<path d="M0 2560 l0 -2560 2560 0 2560 0 0 2560 0 2560 -2560 0 -2560 0 0
-2560z m4454 1091 c49 -22 94 -65 103 -99 10 -40 -21 -90 -70 -112 -93 -43
-164 -22 -315 90 l-32 24 -34 -33 c-42 -41 -82 -121 -102 -207 -19 -84 -34
-250 -27 -304 l6 -40 173 0 174 0 0 -70 0 -70 -175 0 -175 0 0 -432 c0 -238 3
-456 6 -484 l7 -52 111 -19 111 -19 3 -47 3 -47 -335 0 -336 0 0 48 0 48 96
16 c52 9 98 19 102 23 4 4 7 221 7 483 l0 477 -107 3 -108 3 0 54 c0 63 -9 57
130 75 46 5 87 13 90 18 4 4 12 52 18 107 14 125 53 264 95 334 73 125 216
228 347 250 74 13 184 5 234 -18z m-1370 -506 l-7 -175 174 -2 174 -3 3 -67 3
-68 -178 -2 -178 -3 0 -445 c0 -407 2 -448 18 -477 42 -77 140 -92 238 -36
l56 32 32 -33 32 -33 -51 -46 c-65 -58 -149 -87 -256 -87 -129 0 -209 41 -260
132 l-29 53 -5 470 -5 470 -107 3 -108 3 0 54 c0 62 -14 55 150 76 47 6 86 11
86 12 1 1 16 80 34 175 l33 172 79 0 79 0 -7 -175z m-1894 -229 l0 -54 -87
-12 c-49 -7 -93 -16 -99 -19 -7 -4 34 -138 121 -396 126 -368 134 -388 145
-360 7 17 72 193 145 393 126 344 131 363 111 367 -24 6 -147 25 -158 25 -5 0
-8 25 -8 55 l0 55 285 0 285 0 0 -54 0 -54 -67 -11 c-107 -18 -124 -22 -121
-30 2 -4 68 -179 147 -389 79 -211 145 -381 147 -379 6 5 234 753 234 765 0 6
-43 18 -95 27 l-96 18 3 51 3 51 235 0 235 0 3 -52 3 -52 -60 -12 c-33 -6 -67
-17 -74 -23 -8 -6 -96 -254 -196 -551 -101 -297 -188 -546 -193 -552 -6 -7
-28 -13 -50 -13 -47 0 -24 -52 -224 494 -85 231 -155 421 -157 422 -2 2 -80
-203 -173 -454 l-171 -457 -48 0 -48 0 -92 245 c-50 135 -144 387 -209 561
l-118 317 -74 11 -74 12 0 55 0 54 295 0 295 0 0 -54z"/>
</g>
</svg>
